<?xml version="1.0" encoding="UTF-8" standalone="no"?>
<svg width="1024px" height="1024px" viewBox="0 0 1024 1024" version="1.1" xmlns="http://www.w3.org/2000/svg" xmlns:xlink="http://www.w3.org/1999/xlink" xmlns:sketch="http://www.bohemiancoding.com/sketch/ns">
    <title>icon_512x512@2x</title>
    <description>Created with Sketch (http://www.bohemiancoding.com/sketch)</description>
    <defs></defs>
    <g id="Page 1" stroke="none" stroke-width="1" fill="none" fill-rule="evenodd">
        <g id="icon_512x512@2x">
            <g id="Kettle Icon" transform="translate(87.000000, 87.000000)">
                <path d="M235.421874,363.520449 C243.151908,353.775066 251.908151,344.658836 261.560079,336.281965 C264.277882,333.584817 265.788039,332.140443 265.788039,332.140443 L265.645011,332.824936 C265.979152,332.549196 266.314477,332.274165 266.650798,332 L393.001272,332 C393.000425,331.833539 393,331.666855 393,331.5 C393,300.848195 407.326887,276 425,276 C442.673113,276 457,300.848195 457,331.5 C457,331.666855 456.999575,331.833539 456.998728,332 L583.349202,332 C600.11517,345.667437 614.406152,361.484813 625.599181,378.926157 C671.490493,430.960748 736.818356,516.88503 732.592947,580.334656 C726.118844,677.551155 703.206154,666.99405 703.206154,666.99405 L680,666.994048 L680,667 L167,667 L167,665.994048 L144.840645,665.99405 C144.840645,665.99405 121.927955,676.551155 115.453852,579.334656 C113.145075,544.665588 131.601865,503.286571 156.307432,464.391956 L110.140242,363.214015 L177.6441,363.214015 L212.235732,389.70722 C220.494588,380.009952 228.372352,371.186555 235.421874,363.520449 Z M235.421874,363.520449" id="Oval 1" fill="#4A4A4A"></path>
                <path d="M425,138 L678,138 L581.362599,337.159054 L268.637401,337.159054 L172,138 L425,138 Z M425,138" id="Handle" stroke="#4A4A4A" stroke-width="10"></path>
                <path d="M314.003796,122 C309.583422,122 306,125.580896 306,129.998738 L306,156.001262 C306,160.418843 309.572507,164 314.003796,164 L535.996204,164 C540.416578,164 544,160.419104 544,156.001262 L544,129.998738 C544,125.581157 540.427493,122 535.996204,122 L314.003796,122 Z M314.003796,122" id="Rectangle 4" stroke="#4A4A4A" fill="#4A4A4A"></path>
                <path d="M425,850 C659.72103,850 850,659.72103 850,425 C850,190.27897 659.72103,0 425,0 C190.27897,0 0,190.27897 0,425 C0,659.72103 190.27897,850 425,850 Z M425,850" id="Oval 3" stroke="#4A4A4A" stroke-width="15"></path>
            </g>
        </g>
    </g>
</svg>